# xmcd
#
# Track frame offsets:
#	150
#	10009
#	22443
#	36810
#	52745
#	64605
#	81010
#	93979
#	106649
#	123772
#	140308
#
# Disc length: 2095 seconds
#
# Revision: 0
# Processed by: cddbd v1.5.2PL0 Copyright (c) Steve Scherf et al.
# Submitted via: EasyCDDAExtractor 10.2.0.1
#
DISCID=7b082d0b
DTITLE=Various Artist - Zion Music Group Vol. 35
DYEAR=2004
DGENRE=Gospel
TTITLE0=The Crossmen - I Believe In The Old Time Way
TTITLE1=Priscilla McGruder - It's Never Too Late For A Miracle
TTITLE2=The Toney Brothers - Little Is Much When God Is In It
TTITLE3=David Patillo - ! Heart, 2 Hands, 3 Nails
TTITLE4=The Lesters - The More I Know
TTITLE5=Randy Swift - A Different Drum
TTITLE6=Embrace - Blessed Shall You Be
TTITLE7=Firm Foundation - Talking  'Bout Faith
TTITLE8=The Cupps - The Man In THe Middle
TTITLE9=THe Gardeners - I Stand My Tallest
TTITLE10=Barbara Keller - We Need A Word With The Lord
EXTD=
EXTT0=
EXTT1=
EXTT2=
EXTT3=
EXTT4=
EXTT5=
EXTT6=
EXTT7=
EXTT8=
EXTT9=
EXTT10=
PLAYORDER=
